<?xml version="1.0" encoding="UTF-8"?>
<svg width="24px" height="24px" viewBox="0 0 24 24" version="1.1" xmlns="http://www.w3.org/2000/svg" xmlns:xlink="http://www.w3.org/1999/xlink">
    <!-- Generator: Sketch 54.1 (76490) - https://sketchapp.com -->
    <title>icon-24px-leave</title>
    <desc>Created with Sketch.</desc>
    <g id="Grid-Design" stroke="none" stroke-width="1" fill="none" fill-rule="evenodd">
        <g id="Grid-Design-1-Participants" transform="translate(-656.000000, -821.000000)" fill="#FF3B30">
            <g id="Meeting-Controls" transform="translate(0.000000, 582.000000)">
                <g id="Leave-call" transform="translate(40.000000, 239.000000)">
                    <g id="leave" transform="translate(616.000000, 0.000000)">
                        <path d="M20.3473725,11 L18.6378301,9.36170814 C18.2855663,9.02412598 18.2765676,8.48527083 18.6367724,8.13988344 L18.6673349,8.11057813 C19.0190145,7.77336514 19.5837938,7.76802973 19.9374162,8.10691386 L23.2765579,11.3068864 C23.676104,11.6897801 23.6772323,12.3094678 23.2765579,12.6934127 L19.9374162,15.8931338 C19.5876493,16.2282968 19.0275396,16.2348842 18.6673349,15.8895945 L18.6367724,15.8602975 C18.2850927,15.5231798 18.2891188,14.9728231 18.6378301,14.6386454 L20.3477414,13 L12.9953976,13 C12.4456547,13 12,12.5561352 12,12 C12,11.4477153 12.4556644,11 12.9953976,11 L20.3473725,11 Z M17,9 L15,9 L15,7.00247329 C15,6.45576096 14.553384,6 14.0024554,6 L6.99754465,6 C6.4463114,6 6,6.44882258 6,7.00247329 L6,16.9975267 C6,17.544239 6.44661595,18 6.99754465,18 L14.0024554,18 C14.5536886,18 15,17.5511774 15,16.9975267 L15,15 L17,15 L17,18.0059397 C17,19.1072288 16.1064574,20 14.9972399,20 L6.00276013,20 C4.89666625,20 4,19.1054862 4,18.0059397 L4,5.99406028 C4,4.8927712 4.89354265,4 6.00276013,4 L14.9972399,4 C16.1033337,4 17,4.89451376 17,5.99406028 L17,9 Z" id="Combined-Shape"></path>
                    </g>
                </g>
            </g>
        </g>
    </g>
</svg>