<?xml version="1.0" encoding="UTF-8"?>
<svg width="24px" height="24px" viewBox="0 0 24 24" version="1.1" xmlns="http://www.w3.org/2000/svg" xmlns:xlink="http://www.w3.org/1999/xlink">
    <!-- Generator: Sketch 54.1 (76490) - https://sketchapp.com -->
    <title>icon-24px-microphoneoff</title>
    <desc>Created with Sketch.</desc>
    <g id="Grid-Design" stroke="none" stroke-width="1" fill="none" fill-rule="evenodd">
        <g id="Grid-Design-3-Participants" transform="translate(-740.000000, -540.000000)" fill="#000000">
            <g id="Green-User" transform="translate(720.000000, 140.000000)">
                <g id="Controller" transform="translate(0.000000, 382.000000)">
                    <g id="Icon-/-24px-/-Microphone-Off" transform="translate(20.000000, 18.000000)">
                        <path d="M17.2162194,11.0264213 L17.2185349,11.0241058 C17.715976,11.1348845 18.0567667,11.6080864 17.9922726,12.124039 C17.9116422,12.769082 17.631941,13.6641258 17.0115375,14.566531 C16.1268712,15.8533183 14.793746,16.7093537 13,16.9383953 L13,18.9906311 C13,18.9937574 12.999986,18.9968804 12.9999582,19 L14.009222,19 C14.5564136,19 15,19.4438648 15,20 C15,20.5522847 14.5490248,21 14.009222,21 L9.99077797,21 C9.44358641,21 9,20.5561352 9,20 C9,19.4477153 9.45097518,19 9.99077797,19 L11.0000362,19 C11.0000137,18.9968808 11,18.9937578 11,18.9906311 L11,17.2426407 L13.4232304,14.8194102 C14.281481,14.5761112 14.9080287,14.0959127 15.3634551,13.4334743 C15.5976472,13.0928313 15.7702192,12.7237203 15.8883727,12.3542681 L15.8931049,12.3495358 C15.8931939,12.3425837 15.8944966,12.3349898 15.8970768,12.3267333 C15.9659776,12.1062504 15.9990827,11.9450424 16.0077165,11.8759725 C16.076219,11.3279514 16.5760096,10.9392248 17.12403,11.0077274 C17.1430789,11.0101085 17.1758852,11.0160463 17.2162194,11.0264213 Z M14.8100942,4.94726512 L9,10.7573593 L9,6 C9,4.34314575 10.3431458,3 12,3 C13.2864273,3 14.3837386,3.80970165 14.8100942,4.94726512 Z M6.35584336,13.401516 C6.16064541,12.9256367 6.05291889,12.4855709 6.0077274,12.124039 C5.93922497,11.5760196 6.32795032,11.0762298 6.87596978,11.0077274 C7.39191988,10.9432336 7.86511978,11.2840207 7.97590142,11.7814579 L6.35584336,13.401516 Z M20.4877316,2.09805481 C20.8769027,1.70888376 21.506248,1.70725811 21.8994949,2.10050506 C22.2900192,2.49102936 22.2956069,3.1186067 21.9019452,3.51226838 L3.51226838,21.9019452 C3.12309732,22.2911162 2.49375202,22.2927419 2.10050506,21.8994949 C1.70998077,21.5089706 1.70439313,20.8813933 2.09805481,20.4877316 L20.4877316,2.09805481 Z" id="Combined-Shape"></path>
                    </g>
                </g>
            </g>
        </g>
    </g>
</svg>