<?xml version="1.0" encoding="UTF-8"?>
<svg width="24px" height="24px" viewBox="0 0 24 24" version="1.1" xmlns="http://www.w3.org/2000/svg" xmlns:xlink="http://www.w3.org/1999/xlink">
    <!-- Generator: Sketch 54.1 (76490) - https://sketchapp.com -->
    <title>icon-eject</title>
    <desc>Created with Sketch.</desc>
    <g id="Grid-Design" stroke="none" stroke-width="1" fill="none" fill-rule="evenodd">
        <g id="Grid-Design-3-Participants" transform="translate(-656.000000, -666.000000)" fill="#FFFFFF">
            <g id="Participant-List" transform="translate(360.000000, 582.000000)">
                <g id="Green" transform="translate(40.000000, 84.000000)">
                    <g id="Icon-/-24px-/-Microphone-Off" transform="translate(256.000000, 0.000000)">
                        <path d="M19.3473725,11 L17.6378301,9.36170814 C17.2855663,9.02412598 17.2765676,8.48527083 17.6367724,8.13988344 L17.6673349,8.11057813 C18.0190145,7.77336514 18.5837938,7.76802973 18.9374162,8.10691386 L22.2765579,11.3068864 C22.676104,11.6897801 22.6772323,12.3094678 22.2765579,12.6934127 L18.9374162,15.8931338 C18.5876493,16.2282968 18.0275396,16.2348842 17.6673349,15.8895945 L17.6367724,15.8602975 C17.2850927,15.5231798 17.2891188,14.9728231 17.6378301,14.6386454 L19.3477414,13 L11.9953976,13 C11.4456547,13 11,12.5561352 11,12 C11,11.4477153 11.4556644,11 11.9953976,11 L19.3473725,11 Z M16,10 L14,10 L14,7.99539757 C14,7.4556644 13.5536144,7 13.0029699,7 L6.99703014,7 C6.45303631,7 6,7.44565467 6,7.99539757 L6,16.0046024 C6,16.5443356 6.4463856,17 6.99703014,17 L13.0029699,17 C13.5469637,17 14,16.5543453 14,16.0046024 L14,14 L16,14 L16,16.9941413 C16,18.1019465 15.0980496,19 13.9914698,19 L6.0085302,19 C4.8992496,19 4,18.1029399 4,16.9941413 L4,7.00585866 C4,5.89805351 4.90195036,5 6.0085302,5 L13.9914698,5 C15.1007504,5 16,5.89706013 16,7.00585866 L16,10 Z" id="Combined-Shape"></path>
                    </g>
                </g>
            </g>
        </g>
    </g>
</svg>