<?xml version="1.0" encoding="UTF-8"?>
<svg width="24px" height="24px" viewBox="0 0 24 24" version="1.1" xmlns="http://www.w3.org/2000/svg" xmlns:xlink="http://www.w3.org/1999/xlink">
    <!-- Generator: Sketch 54.1 (76490) - https://sketchapp.com -->
    <title>icon-24px-recording</title>
    <desc>Created with Sketch.</desc>
    <g id="Grid-Design" stroke="none" stroke-width="1" fill="none" fill-rule="evenodd">
        <g id="Grid-Design-1-Participants" transform="translate(-656.000000, -744.000000)" fill="#FFFFFF">
            <g id="Meeting-Controls" transform="translate(0.000000, 582.000000)">
                <g id="Recording" transform="translate(40.000000, 162.000000)">
                    <path d="M622,6 L634,6 C636.209139,6 638,7.790861 638,10 L638,14 C638,16.209139 636.209139,18 634,18 L622,18 C619.790861,18 618,16.209139 618,14 L618,10 C618,7.790861 619.790861,6 622,6 Z M621,14.4186992 L622.331675,14.4186992 L622.331675,12.6842818 L622.645011,12.6842818 L623.591545,14.4186992 L625.001554,14.4186992 L623.885297,12.4132791 C624.374883,12.2168022 624.727386,11.8306233 624.727386,11.1395664 L624.727386,11.1124661 C624.727386,10.0894309 624.048492,9.57452575 622.82779,9.57452575 L621,9.57452575 L621,14.4186992 Z M622.331675,11.7831978 L622.331675,10.6178862 L622.769039,10.6178862 C623.199876,10.6178862 623.434877,10.7737127 623.434877,11.1666667 L623.434877,11.1937669 C623.434877,11.5867209 623.212931,11.7831978 622.762512,11.7831978 L622.331675,11.7831978 Z M626.093876,14.4186992 L629.423065,14.4186992 L629.423065,13.3482385 L627.425552,13.3482385 L627.425552,12.4674797 L628.933478,12.4674797 L628.933478,11.4783198 L627.425552,11.4783198 L627.425552,10.6449864 L629.31862,10.6449864 L629.31862,9.57452575 L626.093876,9.57452575 L626.093876,14.4186992 Z M632.826236,14.5 C634.033882,14.5 634.908611,13.8495935 635,12.596206 L633.668325,12.596206 C633.603046,13.1314363 633.270127,13.3888889 632.800124,13.3888889 C632.160398,13.3888889 631.801368,12.8943089 631.801368,12.0203252 L631.801368,11.9661247 C631.801368,11.0853659 632.179981,10.597561 632.780541,10.597561 C633.250544,10.597561 633.511657,10.8685637 633.563879,11.3631436 L634.94125,11.3631436 C634.830277,10.0826558 633.988188,9.5 632.774013,9.5 C631.409698,9.5 630.391358,10.4823848 630.391358,11.9728997 L630.391358,12.0271003 C630.391358,13.5108401 631.19428,14.5 632.826236,14.5 Z" id="Combined-Shape"></path>
                </g>
            </g>
        </g>
    </g>
</svg>