<?xml version="1.0" encoding="UTF-8"?>
<svg width="24px" height="24px" viewBox="0 0 24 24" version="1.1" xmlns="http://www.w3.org/2000/svg" xmlns:xlink="http://www.w3.org/1999/xlink">
    <!-- Generator: Sketch 54.1 (76490) - https://sketchapp.com -->
    <title>icon-24px-microphone</title>
    <desc>Created with Sketch.</desc>
    <g id="Grid-Design" stroke="none" stroke-width="1" fill="none" fill-rule="evenodd">
        <g id="Grid-Design-1-Participants" transform="translate(-656.000000, -705.000000)" fill="#FFFFFF">
            <g id="Meeting-Controls" transform="translate(0.000000, 582.000000)">
                <g id="Mic" transform="translate(40.000000, 123.000000)">
                    <path d="M625,6 C625,4.34314575 626.343146,3 628,3 C629.656854,3 631,4.34314575 631,6 L631,11 C631,12.6568542 629.656854,14 628,14 C626.343146,14 625,12.6568542 625,11 L625,6 Z M627.000041,19 C627.000014,18.9968808 627,18.9937578 627,18.9906311 L627,16.9383954 C625.206252,16.7093537 623.873125,15.8533175 622.988458,14.5665288 C622.368054,13.6641229 622.088353,12.7690783 622.007722,12.1240347 C621.93922,11.5760148 622.327945,11.0762246 622.875965,11.0077221 C623.423985,10.9392196 623.923775,11.3279453 623.992278,11.8759653 C624.000912,11.945035 624.034017,12.1062426 624.102917,12.326725 C624.22124,12.7053567 624.396531,13.0843641 624.636542,13.4334712 C625.313412,14.4180094 626.36827,15 628,15 C629.63173,15 630.686588,14.4180094 631.363458,13.4334712 C631.603469,13.0843641 631.77876,12.7053567 631.897083,12.326725 C631.965983,12.1062426 631.999088,11.945035 632.007722,11.8759653 C632.076225,11.3279453 632.576015,10.9392196 633.124035,11.0077221 C633.672055,11.0762246 634.06078,11.5760148 633.992278,12.1240347 C633.911647,12.7690783 633.631946,13.6641229 633.011542,14.5665288 C632.126875,15.8533175 630.793748,16.7093537 629,16.9383954 L629,18.9906311 C629,18.9937574 628.999986,18.9968804 628.999958,19 L630.009222,19 C630.556414,19 631,19.4438648 631,20 C631,20.5522847 630.549025,21 630.009222,21 L625.990778,21 C625.443586,21 625,20.5561352 625,20 C625,19.4477153 625.450975,19 625.990778,19 L627.000036,19 Z" id="Combined-Shape"></path>
                </g>
            </g>
        </g>
    </g>
</svg>