<svg xmlns="http://www.w3.org/2000/svg" viewBox="0 0 24 24"><g id="Symbols" stroke="none" stroke-width="1" fill-rule="evenodd"><path d="M15.8931049,12.3495358 L15.8883757,12.354265 C15.7702192,12.7237203 15.5976472,13.0928313 15.3634551,13.4334743 C14.9080287,14.0959127 14.281481,14.5761112 13.4232304,14.8194102 L11,17.2426407 L11,18.9906311 C11,18.9937578 11.0000137,18.9968808 11.0000409,19 L9.99077797,19 C9.45097518,19 9,19.4477153 9,20 C9,20.5561352 9.44358641,21 9.99077797,21 L14.009222,21 C14.5490248,21 15,20.5522847 15,20 C15,19.4438648 14.5564136,19 14.009222,19 L12.9999626,19 C12.999986,18.9968804 13,18.9937574 13,18.9906311 L13,16.9383953 C14.793746,16.7093537 16.1268712,15.8533183 17.0115375,14.566531 C17.631941,13.6641258 17.9116422,12.769082 17.9922726,12.124039 C18.0567667,11.6080864 17.715976,11.1348845 17.2185349,11.0241058 L17.2162194,11.0264213 C17.1758852,11.0160463 17.1430789,11.0101085 17.12403,11.0077274 C16.5760096,10.9392248 16.076219,11.3279514 16.0077165,11.8759725 C15.9990827,11.9450424 15.9659776,12.1062504 15.8970768,12.3267333 C15.8944966,12.3349898 15.8931939,12.3425837 15.8931049,12.3495358 Z M14.8100942,4.94726512 C14.3837386,3.80970165 13.2864273,3 12,3 C10.3431458,3 9,4.34314575 9,6 L9,10.7573593 L14.8100942,4.94726512 Z M7.97590142,11.7814579 C7.86511978,11.2840207 7.39191988,10.9432336 6.87596978,11.0077274 C6.32795032,11.0762298 5.93922497,11.5760196 6.0077274,12.124039 C6.05291889,12.4855709 6.16064541,12.9256367 6.35584336,13.401516 L7.97590142,11.7814579 Z M20.4877316,2.09805481 C20.8769027,1.70888376 21.506248,1.70725811 21.8994949,2.10050506 C22.2900192,2.49102936 22.2956069,3.1186067 21.9019452,3.51226838 L3.51226838,21.9019452 C3.12309732,22.2911162 2.49375202,22.2927419 2.10050506,21.8994949 C1.70998077,21.5089706 1.70439313,20.8813933 2.09805481,20.4877316 L20.4877316,2.09805481 Z" id="Combined-Shape"></path></g></svg>
