<?xml version="1.0" encoding="UTF-8"?>
<svg width="22px" height="22px" viewBox="0 0 22 22" version="1.1" xmlns="http://www.w3.org/2000/svg" xmlns:xlink="http://www.w3.org/1999/xlink">
    <!-- Generator: Sketch 54.1 (76490) - https://sketchapp.com -->
    <title>Icon / 24px / Microphone Off</title>
    <desc>Created with Sketch.</desc>
    <g id="Grid-Design" stroke="none" stroke-width="1" fill="none" fill-rule="evenodd">
        <g id="Grid-Design-4-Participants" transform="translate(-613.000000, -706.000000)" fill="#000000">
            <g id="Icon-/-24px-/-Camera-Off" transform="translate(612.000000, 705.000000)">
                <path d="M13.7573593,6 L2.47229113,17.2850682 C2.17760958,16.9352259 2,16.4835828 2,15.9914698 L2,8.0085302 C2,6.8992496 2.89706013,6 4.00585866,6 L13.7573593,6 Z M10.2426407,18 L20.7016702,7.54097052 L21.0756492,7.38514669 C21.5875957,7.17183667 22,7.44565489 22,7.99539512 L22,16.0045612 C22,16.5442917 21.586154,16.8275189 21.0756492,16.6148096 L16,14.499966 L16,15.9914698 C16,17.1007504 15.1029399,18 13.9941413,18 L10.2426407,18 Z M20.4877316,2.09805481 C20.8769027,1.70888376 21.506248,1.70725811 21.8994949,2.10050506 C22.2900192,2.49102936 22.2956069,3.1186067 21.9019452,3.51226838 L3.51226838,21.9019452 C3.12309732,22.2911162 2.49375202,22.2927419 2.10050506,21.8994949 C1.70998077,21.5089706 1.70439313,20.8813933 2.09805481,20.4877316 L20.4877316,2.09805481 Z" id="Combined-Shape"></path>
            </g>
        </g>
    </g>
</svg>